<svg xmlns="http://www.w3.org/2000/svg" width="1200" height="700" viewBox="0 0 1200 700"><rect x="0" y="0" width="1200" height="700" fill="white" /><text x="40" y="35" font-size="24" font-family="monospace">TXTRS-AV healthy retiree mortality fit, 2021</text><text x="40" y="58" font-size="14" font-family="monospace">Solid teal = exploratory txtrs-av estimate. Dashed gray = smoothed projected PubT-2010(B) teacher healthy-retiree reference. Orange points = published 2021 TRS checkpoints. Y-axis is log10(qx).</text><rect x="80" y="80" width="480" height="500" fill="none" stroke="#333" stroke-width="1"/><text x="80" y="65" font-size="18" font-family="monospace">Male</text><line x1="80.00" y1="80" x2="80.00" y2="580" stroke="#eee" stroke-width="1"/><text x="70.00" y="600" font-size="12" font-family="monospace">20</text><line x1="128.00" y1="80" x2="128.00" y2="580" stroke="#eee" stroke-width="1"/><text x="118.00" y="600" font-size="12" font-family="monospace">30</text><line x1="176.00" y1="80" x2="176.00" y2="580" stroke="#eee" stroke-width="1"/><text x="166.00" y="600" font-size="12" font-family="monospace">40</text><line x1="224.00" y1="80" x2="224.00" y2="580" stroke="#eee" stroke-width="1"/><text x="214.00" y="600" font-size="12" font-family="monospace">50</text><line x1="272.00" y1="80" x2="272.00" y2="580" stroke="#eee" stroke-width="1"/><text x="262.00" y="600" font-size="12" font-family="monospace">60</text><line x1="320.00" y1="80" x2="320.00" y2="580" stroke="#eee" stroke-width="1"/><text x="310.00" y="600" font-size="12" font-family="monospace">70</text><line x1="368.00" y1="80" x2="368.00" y2="580" stroke="#eee" stroke-width="1"/><text x="358.00" y="600" font-size="12" font-family="monospace">80</text><line x1="416.00" y1="80" x2="416.00" y2="580" stroke="#eee" stroke-width="1"/><text x="406.00" y="600" font-size="12" font-family="monospace">90</text><line x1="464.00" y1="80" x2="464.00" y2="580" stroke="#eee" stroke-width="1"/><text x="454.00" y="600" font-size="12" font-family="monospace">100</text><line x1="512.00" y1="80" x2="512.00" y2="580" stroke="#eee" stroke-width="1"/><text x="502.00" y="600" font-size="12" font-family="monospace">110</text><line x1="560.00" y1="80" x2="560.00" y2="580" stroke="#eee" stroke-width="1"/><text x="550.00" y="600" font-size="12" font-family="monospace">120</text><line x1="80" y1="524.44" x2="560" y2="524.44" stroke="#eee" stroke-width="1"/><text x="20" y="528.44" font-size="12" font-family="monospace">1e-04</text><line x1="80" y1="413.33" x2="560" y2="413.33" stroke="#eee" stroke-width="1"/><text x="20" y="417.33" font-size="12" font-family="monospace">1e-03</text><line x1="80" y1="302.22" x2="560" y2="302.22" stroke="#eee" stroke-width="1"/><text x="20" y="306.22" font-size="12" font-family="monospace">1e-02</text><line x1="80" y1="191.11" x2="560" y2="191.11" stroke="#eee" stroke-width="1"/><text x="20" y="195.11" font-size="12" font-family="monospace">1e-01</text><line x1="80" y1="80.00" x2="560" y2="80.00" stroke="#eee" stroke-width="1"/><text x="20" y="84.00" font-size="12" font-family="monospace">1e+00</text><polyline fill="none" stroke="#999999" stroke-width="2.0" stroke-dasharray="6 4" points="80.00,471.21 84.80,473.22 89.60,474.84 94.40,476.09 99.20,477.04 104.00,477.72 108.80,478.17 113.60,478.44 118.40,478.59 123.20,478.64 128.00,478.65 132.80,478.11 137.60,476.61 142.40,474.30 147.20,471.31 152.00,467.80 156.80,463.92 161.60,459.82 166.40,455.65 171.20,451.55 176.00,447.67 180.80,443.83 185.60,439.74 190.40,435.43 195.20,430.93 200.00,426.27 204.80,421.46 209.60,416.53 214.40,411.51 219.20,406.43 224.00,401.31 228.80,395.99 233.60,390.36 238.40,384.51 243.20,378.50 248.00,372.43 252.80,366.36 257.60,360.38 262.40,354.57 267.20,349.00 272.00,343.76 276.80,338.87 281.60,334.26 286.40,329.86 291.20,325.59 296.00,321.38 300.80,317.16 305.60,312.87 310.40,308.42 315.20,303.74 320.00,298.78 324.80,293.48 329.60,287.88 334.40,282.05 339.20,276.02 344.00,269.86 348.80,263.62 353.60,257.35 358.40,251.10 363.20,244.92 368.00,238.87 372.80,232.82 377.60,226.64 382.40,220.41 387.20,214.15 392.00,207.94 396.80,201.82 401.60,195.85 406.40,190.07 411.20,184.56 416.00,179.35 420.80,174.30 425.60,169.28 430.40,164.33 435.20,159.50 440.00,154.83 444.80,150.38 449.60,146.19 454.40,142.31 459.20,138.79 464.00,135.67 468.80,132.95 473.60,130.55 478.40,128.39 483.20,126.40 488.00,124.51 492.80,122.64 497.60,120.73 502.40,118.70 507.20,116.47 512.00,113.98 516.80,111.24 521.60,108.34 526.40,105.27 531.20,102.06 536.00,98.70 540.80,95.20 545.60,91.57 550.40,87.82 555.20,83.96 560.00,80.00" /><polyline fill="none" stroke="#005f73" stroke-width="2.5" points="80.00,471.21 84.80,471.21 89.60,471.21 94.40,471.21 99.20,471.21 104.00,471.21 108.80,471.21 113.60,471.21 118.40,471.21 123.20,471.21 128.00,471.21 132.80,471.21 137.60,471.21 142.40,471.21 147.20,468.44 152.00,463.63 156.80,458.36 161.60,452.85 166.40,447.32 171.20,442.00 176.00,437.11 180.80,432.43 185.60,427.60 190.40,422.65 195.20,417.58 200.00,412.41 204.80,407.15 209.60,401.81 214.40,396.40 219.20,390.95 224.00,385.45 228.80,379.76 233.60,373.74 238.40,367.52 243.20,361.18 248.00,354.84 252.80,348.58 257.60,342.51 262.40,336.74 267.20,331.36 272.00,326.48 276.80,322.11 281.60,318.13 286.40,314.45 291.20,310.97 296.00,307.59 300.80,304.21 305.60,300.73 310.40,297.06 315.20,293.10 320.00,288.74 324.80,283.93 329.60,278.72 334.40,273.16 339.20,267.34 344.00,261.31 348.80,255.13 353.60,248.89 358.40,242.65 363.20,236.46 368.00,230.41 372.80,224.32 377.60,218.03 382.40,211.61 387.20,205.15 392.00,198.70 396.80,192.35 401.60,186.16 406.40,180.22 411.20,174.59 416.00,169.35 420.80,164.10 425.60,158.56 430.40,152.90 435.20,147.33 440.00,142.04 444.80,137.23 449.60,133.09 454.40,129.82 459.20,127.62 464.00,126.68 468.80,126.47 473.60,126.32 478.40,126.21 483.20,126.12 488.00,126.06 492.80,125.99 497.60,125.90 502.40,125.79 507.20,125.64 512.00,125.43 516.80,124.57 521.60,122.55 526.40,119.51 531.20,115.57 536.00,110.85 540.80,105.48 545.60,99.58 550.40,93.29 555.20,86.72 560.00,80.00" /><circle cx="176.00" cy="437.11" r="4.0" fill="#bb3e03" /><circle cx="224.00" cy="385.45" r="4.0" fill="#bb3e03" /><circle cx="272.00" cy="326.48" r="4.0" fill="#bb3e03" /><circle cx="320.00" cy="288.74" r="4.0" fill="#bb3e03" /><circle cx="368.00" cy="230.41" r="4.0" fill="#bb3e03" /><circle cx="416.00" cy="169.35" r="4.0" fill="#bb3e03" /><circle cx="464.00" cy="126.68" r="4.0" fill="#bb3e03" /><circle cx="512.00" cy="125.43" r="4.0" fill="#bb3e03" /><circle cx="560.00" cy="80.00" r="4.0" fill="#bb3e03" /><rect x="640" y="80" width="480" height="500" fill="none" stroke="#333" stroke-width="1"/><text x="640" y="65" font-size="18" font-family="monospace">Female</text><line x1="640.00" y1="80" x2="640.00" y2="580" stroke="#eee" stroke-width="1"/><text x="630.00" y="600" font-size="12" font-family="monospace">20</text><line x1="688.00" y1="80" x2="688.00" y2="580" stroke="#eee" stroke-width="1"/><text x="678.00" y="600" font-size="12" font-family="monospace">30</text><line x1="736.00" y1="80" x2="736.00" y2="580" stroke="#eee" stroke-width="1"/><text x="726.00" y="600" font-size="12" font-family="monospace">40</text><line x1="784.00" y1="80" x2="784.00" y2="580" stroke="#eee" stroke-width="1"/><text x="774.00" y="600" font-size="12" font-family="monospace">50</text><line x1="832.00" y1="80" x2="832.00" y2="580" stroke="#eee" stroke-width="1"/><text x="822.00" y="600" font-size="12" font-family="monospace">60</text><line x1="880.00" y1="80" x2="880.00" y2="580" stroke="#eee" stroke-width="1"/><text x="870.00" y="600" font-size="12" font-family="monospace">70</text><line x1="928.00" y1="80" x2="928.00" y2="580" stroke="#eee" stroke-width="1"/><text x="918.00" y="600" font-size="12" font-family="monospace">80</text><line x1="976.00" y1="80" x2="976.00" y2="580" stroke="#eee" stroke-width="1"/><text x="966.00" y="600" font-size="12" font-family="monospace">90</text><line x1="1024.00" y1="80" x2="1024.00" y2="580" stroke="#eee" stroke-width="1"/><text x="1014.00" y="600" font-size="12" font-family="monospace">100</text><line x1="1072.00" y1="80" x2="1072.00" y2="580" stroke="#eee" stroke-width="1"/><text x="1062.00" y="600" font-size="12" font-family="monospace">110</text><line x1="1120.00" y1="80" x2="1120.00" y2="580" stroke="#eee" stroke-width="1"/><text x="1110.00" y="600" font-size="12" font-family="monospace">120</text><line x1="640" y1="524.44" x2="1120" y2="524.44" stroke="#eee" stroke-width="1"/><text x="580" y="528.44" font-size="12" font-family="monospace">1e-04</text><line x1="640" y1="413.33" x2="1120" y2="413.33" stroke="#eee" stroke-width="1"/><text x="580" y="417.33" font-size="12" font-family="monospace">1e-03</text><line x1="640" y1="302.22" x2="1120" y2="302.22" stroke="#eee" stroke-width="1"/><text x="580" y="306.22" font-size="12" font-family="monospace">1e-02</text><line x1="640" y1="191.11" x2="1120" y2="191.11" stroke="#eee" stroke-width="1"/><text x="580" y="195.11" font-size="12" font-family="monospace">1e-01</text><line x1="640" y1="80.00" x2="1120" y2="80.00" stroke="#eee" stroke-width="1"/><text x="580" y="84.00" font-size="12" font-family="monospace">1e+00</text><polyline fill="none" stroke="#999999" stroke-width="2.0" stroke-dasharray="6 4" points="640.00,519.00 644.80,518.81 649.60,518.28 654.40,517.44 659.20,516.33 664.00,514.99 668.80,513.45 673.60,511.75 678.40,509.92 683.20,508.01 688.00,506.05 692.80,503.67 697.60,500.55 702.40,496.82 707.20,492.62 712.00,488.07 716.80,483.31 721.60,478.47 726.40,473.67 731.20,469.06 736.00,464.76 740.80,460.75 745.60,456.87 750.40,453.06 755.20,449.28 760.00,445.47 764.80,441.57 769.60,437.54 774.40,433.31 779.20,428.83 784.00,424.05 788.80,418.72 793.60,412.73 798.40,406.26 803.20,399.45 808.00,392.48 812.80,385.52 817.60,378.72 822.40,372.24 827.20,366.26 832.00,360.93 836.80,356.23 841.60,351.96 846.40,348.00 851.20,344.26 856.00,340.62 860.80,336.98 865.60,333.23 870.40,329.27 875.20,324.99 880.00,320.28 884.80,315.06 889.60,309.38 894.40,303.30 899.20,296.93 904.00,290.32 908.80,283.58 913.60,276.77 918.40,269.98 923.20,263.30 928.00,256.80 932.80,250.34 937.60,243.75 942.40,237.10 947.20,230.41 952.00,223.76 956.80,217.18 961.60,210.73 966.40,204.45 971.20,198.41 976.00,192.64 980.80,187.01 985.60,181.37 990.40,175.79 995.20,170.31 1000.00,165.00 1004.80,159.90 1009.60,155.07 1014.40,150.57 1019.20,146.44 1024.00,142.75 1028.80,139.48 1033.60,136.54 1038.40,133.87 1043.20,131.38 1048.00,129.01 1052.80,126.67 1057.60,124.30 1062.40,121.83 1067.20,119.17 1072.00,116.26 1076.80,113.14 1081.60,109.89 1086.40,106.52 1091.20,103.04 1096.00,99.45 1100.80,95.75 1105.60,91.95 1110.40,88.06 1115.20,84.07 1120.00,80.00" /><polyline fill="none" stroke="#005f73" stroke-width="2.5" points="640.00,519.00 644.80,518.82 649.60,518.31 654.40,517.50 659.20,516.42 664.00,515.10 668.80,513.58 673.60,511.88 678.40,510.04 683.20,508.09 688.00,506.05 692.80,503.40 697.60,499.69 702.40,495.11 707.20,489.87 712.00,484.16 716.80,478.17 721.60,472.10 726.40,466.13 731.20,460.47 736.00,455.31 740.80,450.57 745.60,446.02 750.40,441.58 755.20,437.21 760.00,432.84 764.80,428.41 769.60,423.86 774.40,419.14 779.20,414.17 784.00,408.91 788.80,403.07 793.60,396.55 798.40,389.54 803.20,382.24 808.00,374.85 812.80,367.56 817.60,360.58 822.40,354.09 827.20,348.29 832.00,343.39 836.80,339.29 841.60,335.70 846.40,332.50 851.20,329.56 856.00,326.75 860.80,323.96 865.60,321.04 870.40,317.88 875.20,314.35 880.00,310.33 884.80,305.67 889.60,300.38 894.40,294.57 899.20,288.35 904.00,281.82 908.80,275.10 913.60,268.28 918.40,261.47 923.20,254.79 928.00,248.33 932.80,241.92 937.60,235.34 942.40,228.66 947.20,221.94 952.00,215.24 956.80,208.61 961.60,202.12 966.40,195.83 971.20,189.80 976.00,184.08 980.80,178.48 985.60,172.82 990.40,167.17 995.20,161.64 1000.00,156.29 1004.80,151.22 1009.60,146.52 1014.40,142.26 1019.20,138.54 1024.00,135.43 1028.80,132.88 1033.60,130.69 1038.40,128.78 1043.20,127.07 1048.00,125.46 1052.80,123.88 1057.60,122.24 1062.40,120.46 1067.20,118.44 1072.00,116.11 1076.80,113.46 1081.60,110.56 1086.40,107.42 1091.20,104.05 1096.00,100.47 1100.80,96.70 1105.60,92.76 1110.40,88.65 1115.20,84.39 1120.00,80.00" /><circle cx="736.00" cy="455.31" r="4.0" fill="#bb3e03" /><circle cx="784.00" cy="408.91" r="4.0" fill="#bb3e03" /><circle cx="832.00" cy="343.39" r="4.0" fill="#bb3e03" /><circle cx="880.00" cy="310.33" r="4.0" fill="#bb3e03" /><circle cx="928.00" cy="248.33" r="4.0" fill="#bb3e03" /><circle cx="976.00" cy="184.08" r="4.0" fill="#bb3e03" /><circle cx="1024.00" cy="135.43" r="4.0" fill="#bb3e03" /><circle cx="1072.00" cy="116.11" r="4.0" fill="#bb3e03" /><circle cx="1120.00" cy="80.00" r="4.0" fill="#bb3e03" /><polyline fill="none" stroke="#005f73" stroke-width="2.5" points="80.00,630.00 115.00,630.00" /><text x="125" y="634" font-size="13" font-family="monospace">solid teal: exploratory txtrs-av estimated 2021 healthy-retiree curve</text><polyline fill="none" stroke="#999999" stroke-width="2.0" stroke-dasharray="6 4" points="80.00,658.00 115.00,658.00" /><text x="125" y="662" font-size="13" font-family="monospace">dashed gray: smoothed projected PubT-2010(B) teacher healthy-retiree reference</text><circle cx="760.00" cy="630.00" r="4.0" fill="#bb3e03" /><text x="775" y="634" font-size="13" font-family="monospace">orange points: published 2021 TRS healthy-retiree checkpoints</text></svg>