<svg xmlns="http://www.w3.org/2000/svg" width="1200" height="900" viewBox="0 0 1200 900"><rect x="0" y="0" width="1200" height="900" fill="white" /><text x="40" y="35" font-size="24" font-family="monospace">TXTRS-AV estimate vs current txtrs runtime retiree mortality</text><text x="40" y="58" font-size="14" font-family="monospace">Solid teal = exploratory txtrs-av estimate. Dashed red = current txtrs runtime retiree mortality. Points = published TRS checkpoints for that year. Y-axis is log10(qx).</text><rect x="80" y="80" width="480" height="320" fill="none" stroke="#333" stroke-width="1"/><text x="80" y="65" font-size="18" font-family="monospace">Male 2021</text><line x1="80.00" y1="80" x2="80.00" y2="400" stroke="#eee" stroke-width="1"/><line x1="128.00" y1="80" x2="128.00" y2="400" stroke="#eee" stroke-width="1"/><line x1="176.00" y1="80" x2="176.00" y2="400" stroke="#eee" stroke-width="1"/><line x1="224.00" y1="80" x2="224.00" y2="400" stroke="#eee" stroke-width="1"/><line x1="272.00" y1="80" x2="272.00" y2="400" stroke="#eee" stroke-width="1"/><line x1="320.00" y1="80" x2="320.00" y2="400" stroke="#eee" stroke-width="1"/><line x1="368.00" y1="80" x2="368.00" y2="400" stroke="#eee" stroke-width="1"/><line x1="416.00" y1="80" x2="416.00" y2="400" stroke="#eee" stroke-width="1"/><line x1="464.00" y1="80" x2="464.00" y2="400" stroke="#eee" stroke-width="1"/><line x1="512.00" y1="80" x2="512.00" y2="400" stroke="#eee" stroke-width="1"/><line x1="560.00" y1="80" x2="560.00" y2="400" stroke="#eee" stroke-width="1"/><line x1="80" y1="364.44" x2="560" y2="364.44" stroke="#eee" stroke-width="1"/><line x1="80" y1="293.33" x2="560" y2="293.33" stroke="#eee" stroke-width="1"/><line x1="80" y1="222.22" x2="560" y2="222.22" stroke="#eee" stroke-width="1"/><line x1="80" y1="151.11" x2="560" y2="151.11" stroke="#eee" stroke-width="1"/><line x1="80" y1="80.00" x2="560" y2="80.00" stroke="#eee" stroke-width="1"/><polyline fill="none" stroke="#005f73" stroke-width="2.5" points="80.00,330.37 84.80,330.37 89.60,330.37 94.40,330.37 99.20,330.37 104.00,330.37 108.80,330.37 113.60,330.37 118.40,330.37 123.20,330.37 128.00,330.37 132.80,330.37 137.60,330.37 142.40,330.37 147.20,328.60 152.00,325.52 156.80,322.15 161.60,318.62 166.40,315.09 171.20,311.68 176.00,308.55 180.80,305.55 185.60,302.47 190.40,299.30 195.20,296.05 200.00,292.74 204.80,289.37 209.60,285.96 214.40,282.50 219.20,279.01 224.00,275.49 228.80,271.84 233.60,268.00 238.40,264.01 243.20,259.96 248.00,255.90 252.80,251.89 257.60,248.01 262.40,244.31 267.20,240.87 272.00,237.75 276.80,234.95 281.60,232.40 286.40,230.05 291.20,227.82 296.00,225.65 300.80,223.49 305.60,221.27 310.40,218.92 315.20,216.38 320.00,213.59 324.80,210.52 329.60,207.18 334.40,203.62 339.20,199.90 344.00,196.04 348.80,192.09 353.60,188.09 358.40,184.09 363.20,180.14 368.00,176.26 372.80,172.36 377.60,168.34 382.40,164.23 387.20,160.09 392.00,155.97 396.80,151.90 401.60,147.94 406.40,144.14 411.20,140.54 416.00,137.18 420.80,133.83 425.60,130.28 430.40,126.66 435.20,123.09 440.00,119.71 444.80,116.63 449.60,113.98 454.40,111.89 459.20,110.48 464.00,109.88 468.80,109.74 473.60,109.64 478.40,109.57 483.20,109.52 488.00,109.48 492.80,109.43 497.60,109.38 502.40,109.31 507.20,109.21 512.00,109.07 516.80,108.52 521.60,107.23 526.40,105.29 531.20,102.76 536.00,99.74 540.80,96.31 545.60,92.53 550.40,88.50 555.20,84.30 560.00,80.00" /><polyline fill="none" stroke="#ae2012" stroke-width="2.0" stroke-dasharray="7 4" points="80.00,323.31 84.80,325.78 89.60,328.38 94.40,332.36 99.20,334.20 104.00,334.74 108.80,332.47 113.60,328.95 118.40,326.81 123.20,323.62 128.00,320.66 132.80,317.92 137.60,315.42 142.40,313.14 147.20,311.12 152.00,308.60 156.80,307.16 161.60,305.33 166.40,303.86 171.20,302.13 176.00,300.79 180.80,299.27 185.60,298.07 190.40,296.28 195.20,294.81 200.00,292.84 204.80,290.80 209.60,288.69 214.40,286.75 219.20,284.42 224.00,282.00 228.80,279.48 233.60,276.86 238.40,274.14 243.20,271.50 248.00,256.17 252.80,253.70 257.60,251.21 262.40,248.61 267.20,246.11 272.00,243.66 276.80,241.34 281.60,239.10 286.40,236.92 291.20,234.79 296.00,232.70 300.80,229.76 305.60,226.81 310.40,223.76 315.20,220.64 320.00,217.42 324.80,214.07 329.60,210.63 334.40,207.09 339.20,203.46 344.00,199.74 348.80,195.96 353.60,192.17 358.40,188.35 363.20,184.53 368.00,180.71 372.80,176.86 377.60,172.99 382.40,169.11 387.20,165.24 392.00,161.38 396.80,157.56 401.60,153.81 406.40,150.13 411.20,146.53 416.00,143.02 420.80,139.62 425.60,136.38 430.40,133.31 435.20,130.42 440.00,127.72 444.80,125.06 449.60,122.56 454.40,120.22 459.20,118.01 464.00,115.94 468.80,114.00 473.60,112.18 478.40,110.48 483.20,108.90 488.00,107.45 492.80,106.11 497.60,104.86 502.40,103.73 507.20,102.70 512.00,101.88 516.80,101.80 521.60,101.71 526.40,101.62 531.20,101.53 536.00,101.45 540.80,101.43 545.60,101.42 550.40,101.41 555.20,101.41 560.00,80.00" /><circle cx="176.00" cy="308.55" r="3.8" fill="#bb3e03" /><circle cx="224.00" cy="275.49" r="3.8" fill="#bb3e03" /><circle cx="272.00" cy="237.75" r="3.8" fill="#bb3e03" /><circle cx="320.00" cy="213.59" r="3.8" fill="#bb3e03" /><circle cx="368.00" cy="176.26" r="3.8" fill="#bb3e03" /><circle cx="416.00" cy="137.18" r="3.8" fill="#bb3e03" /><circle cx="464.00" cy="109.88" r="3.8" fill="#bb3e03" /><circle cx="512.00" cy="109.07" r="3.8" fill="#bb3e03" /><circle cx="560.00" cy="80.00" r="3.8" fill="#bb3e03" /><rect x="80" y="460" width="480" height="320" fill="none" stroke="#333" stroke-width="1"/><text x="80" y="445" font-size="18" font-family="monospace">Male 2023</text><line x1="80.00" y1="460" x2="80.00" y2="780" stroke="#eee" stroke-width="1"/><line x1="128.00" y1="460" x2="128.00" y2="780" stroke="#eee" stroke-width="1"/><line x1="176.00" y1="460" x2="176.00" y2="780" stroke="#eee" stroke-width="1"/><line x1="224.00" y1="460" x2="224.00" y2="780" stroke="#eee" stroke-width="1"/><line x1="272.00" y1="460" x2="272.00" y2="780" stroke="#eee" stroke-width="1"/><line x1="320.00" y1="460" x2="320.00" y2="780" stroke="#eee" stroke-width="1"/><line x1="368.00" y1="460" x2="368.00" y2="780" stroke="#eee" stroke-width="1"/><line x1="416.00" y1="460" x2="416.00" y2="780" stroke="#eee" stroke-width="1"/><line x1="464.00" y1="460" x2="464.00" y2="780" stroke="#eee" stroke-width="1"/><line x1="512.00" y1="460" x2="512.00" y2="780" stroke="#eee" stroke-width="1"/><line x1="560.00" y1="460" x2="560.00" y2="780" stroke="#eee" stroke-width="1"/><line x1="80" y1="744.44" x2="560" y2="744.44" stroke="#eee" stroke-width="1"/><line x1="80" y1="673.33" x2="560" y2="673.33" stroke="#eee" stroke-width="1"/><line x1="80" y1="602.22" x2="560" y2="602.22" stroke="#eee" stroke-width="1"/><line x1="80" y1="531.11" x2="560" y2="531.11" stroke="#eee" stroke-width="1"/><line x1="80" y1="460.00" x2="560" y2="460.00" stroke="#eee" stroke-width="1"/><polyline fill="none" stroke="#005f73" stroke-width="2.5" points="80.00,711.21 84.80,711.21 89.60,711.21 94.40,711.21 99.20,711.21 104.00,711.21 108.80,711.21 113.60,711.21 118.40,711.21 123.20,711.21 128.00,711.21 132.80,711.21 137.60,711.21 142.40,711.21 147.20,709.44 152.00,706.36 156.80,702.99 161.60,699.46 166.40,695.92 171.20,692.52 176.00,689.39 180.80,686.39 185.60,683.31 190.40,680.14 195.20,676.89 200.00,673.58 204.80,670.21 209.60,666.80 214.40,663.34 219.20,659.85 224.00,656.33 228.80,652.68 233.60,648.84 238.40,644.85 243.20,640.80 248.00,636.73 252.80,632.73 257.60,628.85 262.40,625.15 267.20,621.71 272.00,618.59 276.80,615.79 281.60,613.24 286.40,610.88 291.20,608.64 296.00,606.47 300.80,604.29 305.60,602.06 310.40,599.71 315.20,597.16 320.00,594.37 324.80,591.28 329.60,587.93 334.40,584.37 339.20,580.63 344.00,576.76 348.80,572.81 353.60,568.80 358.40,564.80 363.20,560.83 368.00,556.95 372.80,553.02 377.60,548.97 382.40,544.83 387.20,540.66 392.00,536.51 396.80,532.41 401.60,528.42 406.40,524.59 411.20,520.96 416.00,517.57 420.80,514.19 425.60,510.61 430.40,506.96 435.20,503.37 440.00,499.95 444.80,496.86 449.60,494.20 454.40,492.10 459.20,490.68 464.00,490.06 468.80,489.91 473.60,489.80 478.40,489.72 483.20,489.66 488.00,489.60 492.80,489.54 497.60,489.48 502.40,489.39 507.20,489.28 512.00,489.14 516.80,488.57 521.60,487.27 526.40,485.31 531.20,482.78 536.00,479.74 540.80,476.31 545.60,472.53 550.40,468.50 555.20,464.30 560.00,460.00" /><polyline fill="none" stroke="#ae2012" stroke-width="2.0" stroke-dasharray="7 4" points="80.00,703.45 84.80,705.92 89.60,708.52 94.40,712.49 99.20,714.32 104.00,714.84 108.80,712.55 113.60,709.02 118.40,706.86 123.20,703.64 128.00,700.63 132.80,697.83 137.60,695.25 142.40,692.90 147.20,690.79 152.00,688.19 156.80,686.68 161.60,684.79 166.40,683.27 171.20,681.50 176.00,680.14 180.80,678.59 185.60,677.40 190.40,675.63 195.20,674.19 200.00,672.27 204.80,670.30 209.60,668.27 214.40,666.43 219.20,664.21 224.00,661.90 228.80,659.49 233.60,656.98 238.40,654.38 243.20,651.82 248.00,636.58 252.80,634.17 257.60,631.74 262.40,629.17 267.20,626.68 272.00,624.24 276.80,621.90 281.60,619.64 286.40,617.43 291.20,615.26 296.00,613.14 300.80,610.16 305.60,607.18 310.40,604.11 315.20,600.97 320.00,597.75 324.80,594.40 329.60,590.98 334.40,587.46 339.20,583.85 344.00,580.16 348.80,576.42 353.60,572.65 358.40,568.86 363.20,565.06 368.00,561.24 372.80,557.39 377.60,553.51 382.40,549.61 387.20,545.72 392.00,541.84 396.80,537.99 401.60,534.22 406.40,530.52 411.20,526.88 416.00,523.34 420.80,519.92 425.60,516.66 430.40,513.57 435.20,510.66 440.00,507.95 444.80,505.27 449.60,502.76 454.40,500.41 459.20,498.19 464.00,496.12 468.80,494.18 473.60,492.36 478.40,490.66 483.20,489.07 488.00,487.61 492.80,486.25 497.60,484.99 502.40,483.85 507.20,482.80 512.00,481.97 516.80,481.87 521.60,481.77 526.40,481.67 531.20,481.56 536.00,481.47 540.80,481.44 545.60,481.43 550.40,481.42 555.20,481.41 560.00,460.00" /><circle cx="176.00" cy="689.37" r="3.8" fill="#0a9396" /><circle cx="224.00" cy="656.33" r="3.8" fill="#0a9396" /><circle cx="272.00" cy="618.59" r="3.8" fill="#0a9396" /><circle cx="320.00" cy="594.37" r="3.8" fill="#0a9396" /><circle cx="368.00" cy="556.95" r="3.8" fill="#0a9396" /><circle cx="416.00" cy="517.57" r="3.8" fill="#0a9396" /><circle cx="464.00" cy="490.06" r="3.8" fill="#0a9396" /><circle cx="512.00" cy="477.96" r="3.8" fill="#0a9396" /><circle cx="560.00" cy="460.00" r="3.8" fill="#0a9396" /><rect x="640" y="80" width="480" height="320" fill="none" stroke="#333" stroke-width="1"/><text x="640" y="65" font-size="18" font-family="monospace">Female 2021</text><line x1="640.00" y1="80" x2="640.00" y2="400" stroke="#eee" stroke-width="1"/><line x1="688.00" y1="80" x2="688.00" y2="400" stroke="#eee" stroke-width="1"/><line x1="736.00" y1="80" x2="736.00" y2="400" stroke="#eee" stroke-width="1"/><line x1="784.00" y1="80" x2="784.00" y2="400" stroke="#eee" stroke-width="1"/><line x1="832.00" y1="80" x2="832.00" y2="400" stroke="#eee" stroke-width="1"/><line x1="880.00" y1="80" x2="880.00" y2="400" stroke="#eee" stroke-width="1"/><line x1="928.00" y1="80" x2="928.00" y2="400" stroke="#eee" stroke-width="1"/><line x1="976.00" y1="80" x2="976.00" y2="400" stroke="#eee" stroke-width="1"/><line x1="1024.00" y1="80" x2="1024.00" y2="400" stroke="#eee" stroke-width="1"/><line x1="1072.00" y1="80" x2="1072.00" y2="400" stroke="#eee" stroke-width="1"/><line x1="1120.00" y1="80" x2="1120.00" y2="400" stroke="#eee" stroke-width="1"/><line x1="640" y1="364.44" x2="1120" y2="364.44" stroke="#eee" stroke-width="1"/><line x1="640" y1="293.33" x2="1120" y2="293.33" stroke="#eee" stroke-width="1"/><line x1="640" y1="222.22" x2="1120" y2="222.22" stroke="#eee" stroke-width="1"/><line x1="640" y1="151.11" x2="1120" y2="151.11" stroke="#eee" stroke-width="1"/><line x1="640" y1="80.00" x2="1120" y2="80.00" stroke="#eee" stroke-width="1"/><polyline fill="none" stroke="#005f73" stroke-width="2.5" points="640.00,360.96 644.80,360.85 649.60,360.52 654.40,360.00 659.20,359.31 664.00,358.47 668.80,357.49 673.60,356.40 678.40,355.23 683.20,353.98 688.00,352.67 692.80,350.97 697.60,348.60 702.40,345.67 707.20,342.32 712.00,338.66 716.80,334.83 721.60,330.94 726.40,327.12 731.20,323.50 736.00,320.20 740.80,317.17 745.60,314.25 750.40,311.41 755.20,308.62 760.00,305.82 764.80,302.98 769.60,300.07 774.40,297.05 779.20,293.87 784.00,290.50 788.80,286.77 793.60,282.59 798.40,278.11 803.20,273.43 808.00,268.70 812.80,264.04 817.60,259.57 822.40,255.42 827.20,251.71 832.00,248.57 836.80,245.95 841.60,243.65 846.40,241.60 851.20,239.72 856.00,237.92 860.80,236.13 865.60,234.26 870.40,232.24 875.20,229.98 880.00,227.41 884.80,224.43 889.60,221.04 894.40,217.33 899.20,213.34 904.00,209.17 908.80,204.86 913.60,200.50 918.40,196.14 923.20,191.86 928.00,187.73 932.80,183.63 937.60,179.42 942.40,175.14 947.20,170.84 952.00,166.55 956.80,162.31 961.60,158.16 966.40,154.13 971.20,150.27 976.00,146.61 980.80,143.03 985.60,139.40 990.40,135.79 995.20,132.25 1000.00,128.83 1004.80,125.58 1009.60,122.57 1014.40,119.85 1019.20,117.46 1024.00,115.48 1028.80,113.84 1033.60,112.44 1038.40,111.22 1043.20,110.12 1048.00,109.10 1052.80,108.09 1057.60,107.04 1062.40,105.89 1067.20,104.60 1072.00,103.11 1076.80,101.42 1081.60,99.56 1086.40,97.55 1091.20,95.39 1096.00,93.10 1100.80,90.69 1105.60,88.16 1110.40,85.53 1115.20,82.81 1120.00,80.00" /><polyline fill="none" stroke="#ae2012" stroke-width="2.0" stroke-dasharray="7 4" points="640.00,353.99 644.80,353.35 649.60,355.12 654.40,357.08 659.20,356.32 664.00,355.53 668.80,352.07 673.60,348.84 678.40,345.83 683.20,341.05 688.00,338.63 692.80,334.79 697.60,332.96 702.40,329.97 707.20,327.46 712.00,325.40 716.80,323.75 721.60,321.44 726.40,320.54 731.20,319.00 736.00,317.00 740.80,316.05 745.60,314.56 750.40,312.63 755.20,311.40 760.00,309.15 764.80,307.46 769.60,305.31 774.40,303.15 779.20,300.59 784.00,298.04 788.80,295.17 793.60,292.35 798.40,289.58 803.20,286.67 808.00,262.97 812.80,260.84 817.60,258.79 822.40,256.88 827.20,255.24 832.00,253.78 836.80,252.42 841.60,251.24 846.40,250.12 851.20,249.03 856.00,247.84 860.80,245.44 865.60,242.80 870.40,239.96 875.20,236.79 880.00,233.33 884.80,229.63 889.60,225.76 894.40,221.69 899.20,217.52 904.00,213.26 908.80,208.96 913.60,204.64 918.40,200.33 923.20,196.04 928.00,191.80 932.80,187.57 937.60,183.38 942.40,179.21 947.20,175.06 952.00,170.96 956.80,166.92 961.60,162.92 966.40,158.97 971.20,155.07 976.00,151.23 980.80,147.47 985.60,143.85 990.40,140.38 995.20,137.09 1000.00,133.98 1004.80,130.93 1009.60,128.04 1014.40,125.30 1019.20,122.72 1024.00,120.27 1028.80,117.97 1033.60,115.81 1038.40,113.78 1043.20,111.90 1048.00,110.14 1052.80,108.52 1057.60,107.03 1062.40,105.65 1067.20,104.40 1072.00,103.26 1076.80,102.22 1081.60,101.65 1086.40,101.57 1091.20,101.50 1096.00,101.43 1100.80,101.42 1105.60,101.41 1110.40,101.41 1115.20,101.41 1120.00,80.00" /><circle cx="736.00" cy="320.20" r="3.8" fill="#bb3e03" /><circle cx="784.00" cy="290.50" r="3.8" fill="#bb3e03" /><circle cx="832.00" cy="248.57" r="3.8" fill="#bb3e03" /><circle cx="880.00" cy="227.41" r="3.8" fill="#bb3e03" /><circle cx="928.00" cy="187.73" r="3.8" fill="#bb3e03" /><circle cx="976.00" cy="146.61" r="3.8" fill="#bb3e03" /><circle cx="1024.00" cy="115.48" r="3.8" fill="#bb3e03" /><circle cx="1072.00" cy="103.11" r="3.8" fill="#bb3e03" /><circle cx="1120.00" cy="80.00" r="3.8" fill="#bb3e03" /><rect x="640" y="460" width="480" height="320" fill="none" stroke="#333" stroke-width="1"/><text x="640" y="445" font-size="18" font-family="monospace">Female 2023</text><line x1="640.00" y1="460" x2="640.00" y2="780" stroke="#eee" stroke-width="1"/><line x1="688.00" y1="460" x2="688.00" y2="780" stroke="#eee" stroke-width="1"/><line x1="736.00" y1="460" x2="736.00" y2="780" stroke="#eee" stroke-width="1"/><line x1="784.00" y1="460" x2="784.00" y2="780" stroke="#eee" stroke-width="1"/><line x1="832.00" y1="460" x2="832.00" y2="780" stroke="#eee" stroke-width="1"/><line x1="880.00" y1="460" x2="880.00" y2="780" stroke="#eee" stroke-width="1"/><line x1="928.00" y1="460" x2="928.00" y2="780" stroke="#eee" stroke-width="1"/><line x1="976.00" y1="460" x2="976.00" y2="780" stroke="#eee" stroke-width="1"/><line x1="1024.00" y1="460" x2="1024.00" y2="780" stroke="#eee" stroke-width="1"/><line x1="1072.00" y1="460" x2="1072.00" y2="780" stroke="#eee" stroke-width="1"/><line x1="1120.00" y1="460" x2="1120.00" y2="780" stroke="#eee" stroke-width="1"/><line x1="640" y1="744.44" x2="1120" y2="744.44" stroke="#eee" stroke-width="1"/><line x1="640" y1="673.33" x2="1120" y2="673.33" stroke="#eee" stroke-width="1"/><line x1="640" y1="602.22" x2="1120" y2="602.22" stroke="#eee" stroke-width="1"/><line x1="640" y1="531.11" x2="1120" y2="531.11" stroke="#eee" stroke-width="1"/><line x1="640" y1="460.00" x2="1120" y2="460.00" stroke="#eee" stroke-width="1"/><polyline fill="none" stroke="#005f73" stroke-width="2.5" points="640.00,741.80 644.80,741.69 649.60,741.36 654.40,740.84 659.20,740.15 664.00,739.31 668.80,738.33 673.60,737.24 678.40,736.07 683.20,734.82 688.00,733.51 692.80,731.81 697.60,729.44 702.40,726.51 707.20,723.16 712.00,719.50 716.80,715.67 721.60,711.78 726.40,707.96 731.20,704.34 736.00,701.04 740.80,698.01 745.60,695.09 750.40,692.25 755.20,689.46 760.00,686.66 764.80,683.82 769.60,680.91 774.40,677.89 779.20,674.71 784.00,671.34 788.80,667.60 793.60,663.43 798.40,658.94 803.20,654.27 808.00,649.54 812.80,644.88 817.60,640.41 822.40,636.26 827.20,632.55 832.00,629.41 836.80,626.79 841.60,624.49 846.40,622.44 851.20,620.54 856.00,618.74 860.80,616.93 865.60,615.06 870.40,613.03 875.20,610.76 880.00,608.18 884.80,605.19 889.60,601.79 894.40,598.07 899.20,594.08 904.00,589.89 908.80,585.58 913.60,581.21 918.40,576.85 923.20,572.55 928.00,568.41 932.80,564.28 937.60,560.05 942.40,555.74 947.20,551.41 952.00,547.09 956.80,542.82 961.60,538.64 966.40,534.58 971.20,530.69 976.00,527.00 980.80,523.39 985.60,519.74 990.40,516.10 995.20,512.53 1000.00,509.07 1004.80,505.82 1009.60,502.79 1014.40,500.06 1019.20,497.66 1024.00,495.66 1028.80,494.02 1033.60,492.60 1038.40,491.37 1043.20,490.26 1048.00,489.22 1052.80,488.20 1057.60,487.14 1062.40,485.98 1067.20,484.68 1072.00,483.17 1076.80,481.47 1081.60,479.59 1086.40,477.57 1091.20,475.40 1096.00,473.10 1100.80,470.69 1105.60,468.16 1110.40,465.53 1115.20,462.81 1120.00,460.00" /><polyline fill="none" stroke="#ae2012" stroke-width="2.0" stroke-dasharray="7 4" points="640.00,733.72 644.80,733.06 649.60,734.82 654.40,736.75 659.20,735.97 664.00,735.15 668.80,731.64 673.60,728.35 678.40,725.26 683.20,720.41 688.00,717.92 692.80,713.99 697.60,712.09 702.40,709.04 707.20,706.48 712.00,704.37 716.80,702.71 721.60,700.41 726.40,699.54 731.20,698.06 736.00,696.14 740.80,695.29 745.60,693.92 750.40,692.13 755.20,691.05 760.00,688.95 764.80,687.41 769.60,685.42 774.40,683.39 779.20,680.95 784.00,678.50 788.80,675.72 793.60,672.96 798.40,670.23 803.20,667.33 808.00,643.62 812.80,641.45 817.60,639.36 822.40,637.38 827.20,635.67 832.00,634.14 836.80,632.71 841.60,631.48 846.40,630.31 851.20,629.20 856.00,628.01 860.80,625.63 865.60,623.03 870.40,620.25 875.20,617.15 880.00,613.76 884.80,610.13 889.60,606.31 894.40,602.29 899.20,598.15 904.00,593.91 908.80,589.61 913.60,585.29 918.40,580.96 923.20,576.65 928.00,572.37 932.80,568.10 937.60,563.87 942.40,559.66 947.20,555.48 952.00,551.34 956.80,547.26 961.60,543.24 966.40,539.25 971.20,535.33 976.00,531.46 980.80,527.68 985.60,524.04 990.40,520.55 995.20,517.26 1000.00,514.15 1004.80,511.09 1009.60,508.19 1014.40,505.46 1019.20,502.87 1024.00,500.43 1028.80,498.13 1033.60,495.96 1038.40,493.93 1043.20,492.03 1048.00,490.26 1052.80,488.63 1057.60,487.13 1062.40,485.74 1067.20,484.48 1072.00,483.32 1076.80,482.27 1081.60,481.69 1086.40,481.60 1091.20,481.52 1096.00,481.44 1100.80,481.42 1105.60,481.42 1110.40,481.41 1115.20,481.41 1120.00,460.00" /><circle cx="736.00" cy="701.02" r="3.8" fill="#0a9396" /><circle cx="784.00" cy="671.33" r="3.8" fill="#0a9396" /><circle cx="832.00" cy="629.41" r="3.8" fill="#0a9396" /><circle cx="880.00" cy="608.18" r="3.8" fill="#0a9396" /><circle cx="928.00" cy="568.41" r="3.8" fill="#0a9396" /><circle cx="976.00" cy="527.00" r="3.8" fill="#0a9396" /><circle cx="1024.00" cy="495.66" r="3.8" fill="#0a9396" /><circle cx="1072.00" cy="480.94" r="3.8" fill="#0a9396" /><circle cx="1120.00" cy="460.00" r="3.8" fill="#0a9396" /><polyline fill="none" stroke="#005f73" stroke-width="2.5" points="80.00,860.00 110.00,860.00" /><text x="120" y="864" font-size="13" font-family="monospace">solid teal: exploratory txtrs-av estimate</text><polyline fill="none" stroke="#ae2012" stroke-width="2.0" stroke-dasharray="7 4" points="430.00,860.00 460.00,860.00" /><text x="470" y="864" font-size="13" font-family="monospace">dashed red: current txtrs runtime retiree mortality</text><circle cx="820.00" cy="860.00" r="3.8" fill="#bb3e03" /><text x="835" y="864" font-size="13" font-family="monospace">points: published 2021 checkpoint</text><circle cx="820.00" cy="888.00" r="3.8" fill="#0a9396" /><text x="835" y="892" font-size="13" font-family="monospace">points: published 2023 checkpoint</text></svg>