<svg xmlns="http://www.w3.org/2000/svg" width="1200" height="900" viewBox="0 0 1200 900"><rect x="0" y="0" width="1200" height="900" fill="white" /><text x="40" y="35" font-size="24" font-family="monospace">TXTRS-AV estimate vs current txtrs runtime retiree mortality</text><text x="40" y="58" font-size="14" font-family="monospace">Solid teal = exploratory txtrs-av estimate. Dashed red = current txtrs runtime retiree mortality. Points = published TRS checkpoints for that year. Y-axis is log10(qx).</text><rect x="80" y="80" width="480" height="320" fill="none" stroke="#333" stroke-width="1"/><text x="80" y="65" font-size="18" font-family="monospace">Male 2021</text><line x1="80.00" y1="80" x2="80.00" y2="400" stroke="#eee" stroke-width="1"/><line x1="128.00" y1="80" x2="128.00" y2="400" stroke="#eee" stroke-width="1"/><line x1="176.00" y1="80" x2="176.00" y2="400" stroke="#eee" stroke-width="1"/><line x1="224.00" y1="80" x2="224.00" y2="400" stroke="#eee" stroke-width="1"/><line x1="272.00" y1="80" x2="272.00" y2="400" stroke="#eee" stroke-width="1"/><line x1="320.00" y1="80" x2="320.00" y2="400" stroke="#eee" stroke-width="1"/><line x1="368.00" y1="80" x2="368.00" y2="400" stroke="#eee" stroke-width="1"/><line x1="416.00" y1="80" x2="416.00" y2="400" stroke="#eee" stroke-width="1"/><line x1="464.00" y1="80" x2="464.00" y2="400" stroke="#eee" stroke-width="1"/><line x1="512.00" y1="80" x2="512.00" y2="400" stroke="#eee" stroke-width="1"/><line x1="560.00" y1="80" x2="560.00" y2="400" stroke="#eee" stroke-width="1"/><line x1="80" y1="364.44" x2="560" y2="364.44" stroke="#eee" stroke-width="1"/><line x1="80" y1="293.33" x2="560" y2="293.33" stroke="#eee" stroke-width="1"/><line x1="80" y1="222.22" x2="560" y2="222.22" stroke="#eee" stroke-width="1"/><line x1="80" y1="151.11" x2="560" y2="151.11" stroke="#eee" stroke-width="1"/><line x1="80" y1="80.00" x2="560" y2="80.00" stroke="#eee" stroke-width="1"/><polyline fill="none" stroke="#005f73" stroke-width="2.5" points="80.00,330.37 84.80,330.37 89.60,330.37 94.40,330.37 99.20,330.37 104.00,330.37 108.80,330.37 113.60,330.37 118.40,330.37 123.20,330.37 128.00,330.37 132.80,330.37 137.60,329.24 142.40,327.30 147.20,325.47 152.00,322.95 156.80,321.31 161.60,319.06 166.40,316.94 171.20,314.35 176.00,311.93 180.80,308.99 185.60,306.23 190.40,302.78 195.20,299.59 200.00,295.92 204.80,292.24 209.60,288.57 214.40,285.18 219.20,281.57 224.00,278.03 228.80,274.74 233.60,271.54 238.40,268.42 243.20,265.52 248.00,250.07 252.80,247.59 257.60,245.16 262.40,242.64 267.20,240.19 272.00,237.75 276.80,236.14 281.60,234.50 286.40,232.76 291.20,230.88 296.00,228.98 300.80,226.07 305.60,223.12 310.40,220.03 315.20,216.83 320.00,213.59 324.80,209.91 329.60,206.17 334.40,202.43 339.20,198.64 344.00,194.88 348.80,191.11 353.60,187.35 358.40,183.64 363.20,179.93 368.00,176.26 372.80,172.27 377.60,168.30 382.40,164.28 387.20,160.27 392.00,156.32 396.80,152.37 401.60,148.47 406.40,144.67 411.20,140.89 416.00,137.18 420.80,133.77 425.60,130.45 430.40,127.26 435.20,124.27 440.00,121.39 444.80,119.02 449.60,116.80 454.40,114.73 459.20,112.81 464.00,111.03 468.80,110.32 473.60,109.63 478.40,108.97 483.20,108.32 488.00,107.69 492.80,107.06 497.60,106.44 502.40,105.82 507.20,105.19 512.00,104.68 516.80,104.32 521.60,103.96 526.40,103.59 531.20,103.23 536.00,102.87 540.80,102.58 545.60,102.29 550.40,101.99 555.20,101.70 560.00,80.00" /><polyline fill="none" stroke="#ae2012" stroke-width="2.0" stroke-dasharray="7 4" points="80.00,323.31 84.80,325.78 89.60,328.38 94.40,332.36 99.20,334.20 104.00,334.74 108.80,332.47 113.60,328.95 118.40,326.81 123.20,323.62 128.00,320.66 132.80,317.92 137.60,315.42 142.40,313.14 147.20,311.12 152.00,308.60 156.80,307.16 161.60,305.33 166.40,303.86 171.20,302.13 176.00,300.79 180.80,299.27 185.60,298.07 190.40,296.28 195.20,294.81 200.00,292.84 204.80,290.80 209.60,288.69 214.40,286.75 219.20,284.42 224.00,282.00 228.80,279.48 233.60,276.86 238.40,274.14 243.20,271.50 248.00,256.17 252.80,253.70 257.60,251.21 262.40,248.61 267.20,246.11 272.00,243.66 276.80,241.34 281.60,239.10 286.40,236.92 291.20,234.79 296.00,232.70 300.80,229.76 305.60,226.81 310.40,223.76 315.20,220.64 320.00,217.42 324.80,214.07 329.60,210.63 334.40,207.09 339.20,203.46 344.00,199.74 348.80,195.96 353.60,192.17 358.40,188.35 363.20,184.53 368.00,180.71 372.80,176.86 377.60,172.99 382.40,169.11 387.20,165.24 392.00,161.38 396.80,157.56 401.60,153.81 406.40,150.13 411.20,146.53 416.00,143.02 420.80,139.62 425.60,136.38 430.40,133.31 435.20,130.42 440.00,127.72 444.80,125.06 449.60,122.56 454.40,120.22 459.20,118.01 464.00,115.94 468.80,114.00 473.60,112.18 478.40,110.48 483.20,108.90 488.00,107.45 492.80,106.11 497.60,104.86 502.40,103.73 507.20,102.70 512.00,101.88 516.80,101.80 521.60,101.71 526.40,101.62 531.20,101.53 536.00,101.45 540.80,101.43 545.60,101.42 550.40,101.41 555.20,101.41 560.00,80.00" /><circle cx="176.00" cy="308.55" r="3.8" fill="#bb3e03" /><circle cx="224.00" cy="275.49" r="3.8" fill="#bb3e03" /><circle cx="272.00" cy="237.75" r="3.8" fill="#bb3e03" /><circle cx="320.00" cy="213.59" r="3.8" fill="#bb3e03" /><circle cx="368.00" cy="176.26" r="3.8" fill="#bb3e03" /><circle cx="416.00" cy="137.18" r="3.8" fill="#bb3e03" /><circle cx="464.00" cy="109.88" r="3.8" fill="#bb3e03" /><circle cx="512.00" cy="109.07" r="3.8" fill="#bb3e03" /><circle cx="560.00" cy="80.00" r="3.8" fill="#bb3e03" /><rect x="80" y="460" width="480" height="320" fill="none" stroke="#333" stroke-width="1"/><text x="80" y="445" font-size="18" font-family="monospace">Male 2023</text><line x1="80.00" y1="460" x2="80.00" y2="780" stroke="#eee" stroke-width="1"/><line x1="128.00" y1="460" x2="128.00" y2="780" stroke="#eee" stroke-width="1"/><line x1="176.00" y1="460" x2="176.00" y2="780" stroke="#eee" stroke-width="1"/><line x1="224.00" y1="460" x2="224.00" y2="780" stroke="#eee" stroke-width="1"/><line x1="272.00" y1="460" x2="272.00" y2="780" stroke="#eee" stroke-width="1"/><line x1="320.00" y1="460" x2="320.00" y2="780" stroke="#eee" stroke-width="1"/><line x1="368.00" y1="460" x2="368.00" y2="780" stroke="#eee" stroke-width="1"/><line x1="416.00" y1="460" x2="416.00" y2="780" stroke="#eee" stroke-width="1"/><line x1="464.00" y1="460" x2="464.00" y2="780" stroke="#eee" stroke-width="1"/><line x1="512.00" y1="460" x2="512.00" y2="780" stroke="#eee" stroke-width="1"/><line x1="560.00" y1="460" x2="560.00" y2="780" stroke="#eee" stroke-width="1"/><line x1="80" y1="744.44" x2="560" y2="744.44" stroke="#eee" stroke-width="1"/><line x1="80" y1="673.33" x2="560" y2="673.33" stroke="#eee" stroke-width="1"/><line x1="80" y1="602.22" x2="560" y2="602.22" stroke="#eee" stroke-width="1"/><line x1="80" y1="531.11" x2="560" y2="531.11" stroke="#eee" stroke-width="1"/><line x1="80" y1="460.00" x2="560" y2="460.00" stroke="#eee" stroke-width="1"/><polyline fill="none" stroke="#005f73" stroke-width="2.5" points="80.00,711.21 84.80,711.21 89.60,711.21 94.40,711.21 99.20,711.21 104.00,711.21 108.80,711.21 113.60,711.21 118.40,711.21 123.20,711.21 128.00,711.21 132.80,711.21 137.60,710.08 142.40,708.14 147.20,706.31 152.00,703.79 156.80,702.15 161.60,699.90 166.40,697.78 171.20,695.19 176.00,692.77 180.80,689.83 185.60,687.07 190.40,683.62 195.20,680.43 200.00,676.76 204.80,673.08 209.60,669.40 214.40,666.02 219.20,662.41 224.00,658.87 228.80,655.58 233.60,652.38 238.40,649.25 243.20,646.36 248.00,630.91 252.80,628.43 257.60,626.00 262.40,623.48 267.20,621.03 272.00,618.59 276.80,616.98 281.60,615.34 286.40,613.59 291.20,611.70 296.00,609.79 300.80,606.87 305.60,603.92 310.40,600.82 315.20,597.61 320.00,594.37 324.80,590.68 329.60,586.92 334.40,583.18 339.20,579.38 344.00,575.60 348.80,571.83 353.60,568.06 358.40,564.34 363.20,560.62 368.00,556.95 372.80,552.92 377.60,548.92 382.40,544.88 387.20,540.84 392.00,536.86 396.80,532.88 401.60,528.95 406.40,525.12 411.20,521.31 416.00,517.57 420.80,514.14 425.60,510.78 430.40,507.57 435.20,504.54 440.00,501.64 444.80,499.25 449.60,497.02 454.40,494.94 459.20,493.01 464.00,491.21 468.80,490.49 473.60,489.80 478.40,489.12 483.20,488.46 488.00,487.81 492.80,487.17 497.60,486.54 502.40,485.90 507.20,485.26 512.00,484.74 516.80,484.37 521.60,483.99 526.40,483.62 531.20,483.25 536.00,482.87 540.80,482.58 545.60,482.29 550.40,481.99 555.20,481.70 560.00,460.00" /><polyline fill="none" stroke="#ae2012" stroke-width="2.0" stroke-dasharray="7 4" points="80.00,703.45 84.80,705.92 89.60,708.52 94.40,712.49 99.20,714.32 104.00,714.84 108.80,712.55 113.60,709.02 118.40,706.86 123.20,703.64 128.00,700.63 132.80,697.83 137.60,695.25 142.40,692.90 147.20,690.79 152.00,688.19 156.80,686.68 161.60,684.79 166.40,683.27 171.20,681.50 176.00,680.14 180.80,678.59 185.60,677.40 190.40,675.63 195.20,674.19 200.00,672.27 204.80,670.30 209.60,668.27 214.40,666.43 219.20,664.21 224.00,661.90 228.80,659.49 233.60,656.98 238.40,654.38 243.20,651.82 248.00,636.58 252.80,634.17 257.60,631.74 262.40,629.17 267.20,626.68 272.00,624.24 276.80,621.90 281.60,619.64 286.40,617.43 291.20,615.26 296.00,613.14 300.80,610.16 305.60,607.18 310.40,604.11 315.20,600.97 320.00,597.75 324.80,594.40 329.60,590.98 334.40,587.46 339.20,583.85 344.00,580.16 348.80,576.42 353.60,572.65 358.40,568.86 363.20,565.06 368.00,561.24 372.80,557.39 377.60,553.51 382.40,549.61 387.20,545.72 392.00,541.84 396.80,537.99 401.60,534.22 406.40,530.52 411.20,526.88 416.00,523.34 420.80,519.92 425.60,516.66 430.40,513.57 435.20,510.66 440.00,507.95 444.80,505.27 449.60,502.76 454.40,500.41 459.20,498.19 464.00,496.12 468.80,494.18 473.60,492.36 478.40,490.66 483.20,489.07 488.00,487.61 492.80,486.25 497.60,484.99 502.40,483.85 507.20,482.80 512.00,481.97 516.80,481.87 521.60,481.77 526.40,481.67 531.20,481.56 536.00,481.47 540.80,481.44 545.60,481.43 550.40,481.42 555.20,481.41 560.00,460.00" /><circle cx="176.00" cy="689.37" r="3.8" fill="#0a9396" /><circle cx="224.00" cy="656.33" r="3.8" fill="#0a9396" /><circle cx="272.00" cy="618.59" r="3.8" fill="#0a9396" /><circle cx="320.00" cy="594.37" r="3.8" fill="#0a9396" /><circle cx="368.00" cy="556.95" r="3.8" fill="#0a9396" /><circle cx="416.00" cy="517.57" r="3.8" fill="#0a9396" /><circle cx="464.00" cy="490.06" r="3.8" fill="#0a9396" /><circle cx="512.00" cy="477.96" r="3.8" fill="#0a9396" /><circle cx="560.00" cy="460.00" r="3.8" fill="#0a9396" /><rect x="640" y="80" width="480" height="320" fill="none" stroke="#333" stroke-width="1"/><text x="640" y="65" font-size="18" font-family="monospace">Female 2021</text><line x1="640.00" y1="80" x2="640.00" y2="400" stroke="#eee" stroke-width="1"/><line x1="688.00" y1="80" x2="688.00" y2="400" stroke="#eee" stroke-width="1"/><line x1="736.00" y1="80" x2="736.00" y2="400" stroke="#eee" stroke-width="1"/><line x1="784.00" y1="80" x2="784.00" y2="400" stroke="#eee" stroke-width="1"/><line x1="832.00" y1="80" x2="832.00" y2="400" stroke="#eee" stroke-width="1"/><line x1="880.00" y1="80" x2="880.00" y2="400" stroke="#eee" stroke-width="1"/><line x1="928.00" y1="80" x2="928.00" y2="400" stroke="#eee" stroke-width="1"/><line x1="976.00" y1="80" x2="976.00" y2="400" stroke="#eee" stroke-width="1"/><line x1="1024.00" y1="80" x2="1024.00" y2="400" stroke="#eee" stroke-width="1"/><line x1="1072.00" y1="80" x2="1072.00" y2="400" stroke="#eee" stroke-width="1"/><line x1="1120.00" y1="80" x2="1120.00" y2="400" stroke="#eee" stroke-width="1"/><line x1="640" y1="364.44" x2="1120" y2="364.44" stroke="#eee" stroke-width="1"/><line x1="640" y1="293.33" x2="1120" y2="293.33" stroke="#eee" stroke-width="1"/><line x1="640" y1="222.22" x2="1120" y2="222.22" stroke="#eee" stroke-width="1"/><line x1="640" y1="151.11" x2="1120" y2="151.11" stroke="#eee" stroke-width="1"/><line x1="640" y1="80.00" x2="1120" y2="80.00" stroke="#eee" stroke-width="1"/><polyline fill="none" stroke="#005f73" stroke-width="2.5" points="640.00,360.96 644.80,360.81 649.60,360.81 654.40,360.81 659.20,360.81 664.00,360.81 668.80,360.81 673.60,359.90 678.40,357.46 683.20,353.19 688.00,351.16 692.80,347.58 697.60,345.84 702.40,342.75 707.20,339.91 712.00,337.28 716.80,334.84 721.60,331.55 726.40,329.47 731.20,326.63 736.00,323.22 740.80,320.65 745.60,317.54 750.40,314.04 755.20,311.35 760.00,307.80 764.80,304.97 769.60,301.87 774.40,298.96 779.20,295.85 784.00,292.92 788.80,290.01 793.60,287.29 798.40,284.73 803.20,282.05 808.00,258.59 812.80,256.60 817.60,254.58 822.40,252.54 827.20,250.56 832.00,248.57 836.80,247.39 841.60,246.22 846.40,244.95 851.20,243.59 856.00,242.15 860.80,239.48 865.60,236.68 870.40,233.79 875.20,230.65 880.00,227.41 884.80,223.65 889.60,219.78 894.40,215.84 899.20,211.83 904.00,207.82 908.80,203.80 913.60,199.74 918.40,195.73 923.20,191.70 928.00,187.73 932.80,183.53 937.60,179.37 942.40,175.18 947.20,171.00 952.00,166.88 956.80,162.75 961.60,158.66 966.40,154.63 971.20,150.61 976.00,146.61 980.80,142.81 985.60,139.09 990.40,135.50 995.20,132.11 1000.00,128.84 1004.80,126.04 1009.60,123.41 1014.40,120.93 1019.20,118.60 1024.00,116.41 1028.80,114.65 1033.60,113.00 1038.40,111.44 1043.20,109.98 1048.00,108.63 1052.80,107.36 1057.60,106.19 1062.40,105.11 1067.20,104.10 1072.00,103.17 1076.80,102.14 1081.60,101.58 1086.40,101.52 1091.20,101.45 1096.00,101.39 1100.80,101.39 1105.60,101.39 1110.40,101.39 1115.20,101.39 1120.00,80.00" /><polyline fill="none" stroke="#ae2012" stroke-width="2.0" stroke-dasharray="7 4" points="640.00,353.99 644.80,353.35 649.60,355.12 654.40,357.08 659.20,356.32 664.00,355.53 668.80,352.07 673.60,348.84 678.40,345.83 683.20,341.05 688.00,338.63 692.80,334.79 697.60,332.96 702.40,329.97 707.20,327.46 712.00,325.40 716.80,323.75 721.60,321.44 726.40,320.54 731.20,319.00 736.00,317.00 740.80,316.05 745.60,314.56 750.40,312.63 755.20,311.40 760.00,309.15 764.80,307.46 769.60,305.31 774.40,303.15 779.20,300.59 784.00,298.04 788.80,295.17 793.60,292.35 798.40,289.58 803.20,286.67 808.00,262.97 812.80,260.84 817.60,258.79 822.40,256.88 827.20,255.24 832.00,253.78 836.80,252.42 841.60,251.24 846.40,250.12 851.20,249.03 856.00,247.84 860.80,245.44 865.60,242.80 870.40,239.96 875.20,236.79 880.00,233.33 884.80,229.63 889.60,225.76 894.40,221.69 899.20,217.52 904.00,213.26 908.80,208.96 913.60,204.64 918.40,200.33 923.20,196.04 928.00,191.80 932.80,187.57 937.60,183.38 942.40,179.21 947.20,175.06 952.00,170.96 956.80,166.92 961.60,162.92 966.40,158.97 971.20,155.07 976.00,151.23 980.80,147.47 985.60,143.85 990.40,140.38 995.20,137.09 1000.00,133.98 1004.80,130.93 1009.60,128.04 1014.40,125.30 1019.20,122.72 1024.00,120.27 1028.80,117.97 1033.60,115.81 1038.40,113.78 1043.20,111.90 1048.00,110.14 1052.80,108.52 1057.60,107.03 1062.40,105.65 1067.20,104.40 1072.00,103.26 1076.80,102.22 1081.60,101.65 1086.40,101.57 1091.20,101.50 1096.00,101.43 1100.80,101.42 1105.60,101.41 1110.40,101.41 1115.20,101.41 1120.00,80.00" /><circle cx="736.00" cy="320.20" r="3.8" fill="#bb3e03" /><circle cx="784.00" cy="290.50" r="3.8" fill="#bb3e03" /><circle cx="832.00" cy="248.57" r="3.8" fill="#bb3e03" /><circle cx="880.00" cy="227.41" r="3.8" fill="#bb3e03" /><circle cx="928.00" cy="187.73" r="3.8" fill="#bb3e03" /><circle cx="976.00" cy="146.61" r="3.8" fill="#bb3e03" /><circle cx="1024.00" cy="115.48" r="3.8" fill="#bb3e03" /><circle cx="1072.00" cy="103.11" r="3.8" fill="#bb3e03" /><circle cx="1120.00" cy="80.00" r="3.8" fill="#bb3e03" /><rect x="640" y="460" width="480" height="320" fill="none" stroke="#333" stroke-width="1"/><text x="640" y="445" font-size="18" font-family="monospace">Female 2023</text><line x1="640.00" y1="460" x2="640.00" y2="780" stroke="#eee" stroke-width="1"/><line x1="688.00" y1="460" x2="688.00" y2="780" stroke="#eee" stroke-width="1"/><line x1="736.00" y1="460" x2="736.00" y2="780" stroke="#eee" stroke-width="1"/><line x1="784.00" y1="460" x2="784.00" y2="780" stroke="#eee" stroke-width="1"/><line x1="832.00" y1="460" x2="832.00" y2="780" stroke="#eee" stroke-width="1"/><line x1="880.00" y1="460" x2="880.00" y2="780" stroke="#eee" stroke-width="1"/><line x1="928.00" y1="460" x2="928.00" y2="780" stroke="#eee" stroke-width="1"/><line x1="976.00" y1="460" x2="976.00" y2="780" stroke="#eee" stroke-width="1"/><line x1="1024.00" y1="460" x2="1024.00" y2="780" stroke="#eee" stroke-width="1"/><line x1="1072.00" y1="460" x2="1072.00" y2="780" stroke="#eee" stroke-width="1"/><line x1="1120.00" y1="460" x2="1120.00" y2="780" stroke="#eee" stroke-width="1"/><line x1="640" y1="744.44" x2="1120" y2="744.44" stroke="#eee" stroke-width="1"/><line x1="640" y1="673.33" x2="1120" y2="673.33" stroke="#eee" stroke-width="1"/><line x1="640" y1="602.22" x2="1120" y2="602.22" stroke="#eee" stroke-width="1"/><line x1="640" y1="531.11" x2="1120" y2="531.11" stroke="#eee" stroke-width="1"/><line x1="640" y1="460.00" x2="1120" y2="460.00" stroke="#eee" stroke-width="1"/><polyline fill="none" stroke="#005f73" stroke-width="2.5" points="640.00,741.80 644.80,741.65 649.60,741.65 654.40,741.65 659.20,741.65 664.00,741.65 668.80,741.65 673.60,740.74 678.40,738.30 683.20,734.02 688.00,732.00 692.80,728.41 697.60,726.68 702.40,723.58 707.20,720.75 712.00,718.12 716.80,715.68 721.60,712.39 726.40,710.31 731.20,707.47 736.00,704.06 740.80,701.49 745.60,698.38 750.40,694.88 755.20,692.19 760.00,688.63 764.80,685.81 769.60,682.71 774.40,679.80 779.20,676.69 784.00,673.76 788.80,670.85 793.60,668.13 798.40,665.57 803.20,662.89 808.00,639.43 812.80,637.44 817.60,635.42 822.40,633.38 827.20,631.40 832.00,629.41 836.80,628.23 841.60,627.06 846.40,625.78 851.20,624.41 856.00,622.97 860.80,620.28 865.60,617.47 870.40,614.58 875.20,611.43 880.00,608.18 884.80,604.41 889.60,600.53 894.40,596.59 899.20,592.56 904.00,588.55 908.80,584.52 913.60,580.45 918.40,576.43 923.20,572.39 928.00,568.41 932.80,564.18 937.60,560.00 942.40,555.78 947.20,551.56 952.00,547.41 956.80,543.26 961.60,539.14 966.40,535.09 971.20,531.03 976.00,527.00 980.80,523.17 985.60,519.42 990.40,515.81 995.20,512.39 1000.00,509.09 1004.80,506.28 1009.60,503.63 1014.40,501.14 1019.20,498.79 1024.00,496.60 1028.80,494.83 1033.60,493.16 1038.40,491.59 1043.20,490.12 1048.00,488.75 1052.80,487.47 1057.60,486.29 1062.40,485.19 1067.20,484.18 1072.00,483.23 1076.80,482.19 1081.60,481.62 1086.40,481.54 1091.20,481.46 1096.00,481.39 1100.80,481.39 1105.60,481.39 1110.40,481.39 1115.20,481.39 1120.00,460.00" /><polyline fill="none" stroke="#ae2012" stroke-width="2.0" stroke-dasharray="7 4" points="640.00,733.72 644.80,733.06 649.60,734.82 654.40,736.75 659.20,735.97 664.00,735.15 668.80,731.64 673.60,728.35 678.40,725.26 683.20,720.41 688.00,717.92 692.80,713.99 697.60,712.09 702.40,709.04 707.20,706.48 712.00,704.37 716.80,702.71 721.60,700.41 726.40,699.54 731.20,698.06 736.00,696.14 740.80,695.29 745.60,693.92 750.40,692.13 755.20,691.05 760.00,688.95 764.80,687.41 769.60,685.42 774.40,683.39 779.20,680.95 784.00,678.50 788.80,675.72 793.60,672.96 798.40,670.23 803.20,667.33 808.00,643.62 812.80,641.45 817.60,639.36 822.40,637.38 827.20,635.67 832.00,634.14 836.80,632.71 841.60,631.48 846.40,630.31 851.20,629.20 856.00,628.01 860.80,625.63 865.60,623.03 870.40,620.25 875.20,617.15 880.00,613.76 884.80,610.13 889.60,606.31 894.40,602.29 899.20,598.15 904.00,593.91 908.80,589.61 913.60,585.29 918.40,580.96 923.20,576.65 928.00,572.37 932.80,568.10 937.60,563.87 942.40,559.66 947.20,555.48 952.00,551.34 956.80,547.26 961.60,543.24 966.40,539.25 971.20,535.33 976.00,531.46 980.80,527.68 985.60,524.04 990.40,520.55 995.20,517.26 1000.00,514.15 1004.80,511.09 1009.60,508.19 1014.40,505.46 1019.20,502.87 1024.00,500.43 1028.80,498.13 1033.60,495.96 1038.40,493.93 1043.20,492.03 1048.00,490.26 1052.80,488.63 1057.60,487.13 1062.40,485.74 1067.20,484.48 1072.00,483.32 1076.80,482.27 1081.60,481.69 1086.40,481.60 1091.20,481.52 1096.00,481.44 1100.80,481.42 1105.60,481.42 1110.40,481.41 1115.20,481.41 1120.00,460.00" /><circle cx="736.00" cy="701.02" r="3.8" fill="#0a9396" /><circle cx="784.00" cy="671.33" r="3.8" fill="#0a9396" /><circle cx="832.00" cy="629.41" r="3.8" fill="#0a9396" /><circle cx="880.00" cy="608.18" r="3.8" fill="#0a9396" /><circle cx="928.00" cy="568.41" r="3.8" fill="#0a9396" /><circle cx="976.00" cy="527.00" r="3.8" fill="#0a9396" /><circle cx="1024.00" cy="495.66" r="3.8" fill="#0a9396" /><circle cx="1072.00" cy="480.94" r="3.8" fill="#0a9396" /><circle cx="1120.00" cy="460.00" r="3.8" fill="#0a9396" /><polyline fill="none" stroke="#005f73" stroke-width="2.5" points="80.00,860.00 110.00,860.00" /><text x="120" y="864" font-size="13" font-family="monospace">solid teal: exploratory txtrs-av estimate</text><polyline fill="none" stroke="#ae2012" stroke-width="2.0" stroke-dasharray="7 4" points="430.00,860.00 460.00,860.00" /><text x="470" y="864" font-size="13" font-family="monospace">dashed red: current txtrs runtime retiree mortality</text><circle cx="820.00" cy="860.00" r="3.8" fill="#bb3e03" /><text x="835" y="864" font-size="13" font-family="monospace">points: published 2021 checkpoint</text><circle cx="820.00" cy="888.00" r="3.8" fill="#0a9396" /><text x="835" y="892" font-size="13" font-family="monospace">points: published 2023 checkpoint</text></svg>